<?xml version="1.0" encoding="UTF-8"?>
<!DOCTYPE svg PUBLIC "-//W3C//DTD SVG 1.1//EN" "http://www.w3.org/Graphics/SVG/1.1/DTD/svg11.dtd">
<!-- Creator: CorelDRAW X8 -->
<svg xmlns="http://www.w3.org/2000/svg" xml:space="preserve" width="215.9mm" height="279.4mm" version="1.1" style="shape-rendering:geometricPrecision; text-rendering:geometricPrecision; image-rendering:optimizeQuality; fill-rule:evenodd; clip-rule:evenodd"
viewBox="0 0 21590 27940"
 xmlns:xlink="http://www.w3.org/1999/xlink">
 <defs>
  <style type="text/css">
   <![CDATA[
    .fil0 {fill:#E54E26}
    .fil1 {fill:#EF6229}
   ]]>
  </style>
 </defs>
 <g id="Layer_x0020_1">
  <metadata id="CorelCorpID_0Corel-Layer"/>
  <g id="_2762821949600">
   <path class="fil0" d="M10775 21847l-5143 -1487 -348 -4040 2603 43 185 1987c316,176 2606,798 2933,777 470,-28 2590,-572 2858,-828l258 -3260 -8974 -57 -668 -7798 6377 -3 126 -2613 8501 0 -1631 18114 -6868 1858 -209 -2693zm10562 -18986l-20746 -1 1903 21092c230,166 8026,2352 8445,2355 1027,7 6927,-1922 8523,-2288l1875 -21158z"/>
   <polygon class="fil1" points="10856,7181 17465,7176 17258,9751 7319,9774 7527,12408 17017,12428 16309,20337 10775,21847 10984,24540 17852,22682 19483,4568 10982,4568 "/>
  </g>
 </g>
</svg>
