<?xml version="1.0" encoding="UTF-8"?>
<!DOCTYPE svg PUBLIC "-//W3C//DTD SVG 1.1//EN" "http://www.w3.org/Graphics/SVG/1.1/DTD/svg11.dtd">
<!-- Creator: CorelDRAW X8 -->
<svg xmlns="http://www.w3.org/2000/svg" xml:space="preserve" width="816px" height="1056px" version="1.1" style="shape-rendering:geometricPrecision; text-rendering:geometricPrecision; image-rendering:optimizeQuality; fill-rule:evenodd; clip-rule:evenodd"
viewBox="0 0 816 1056"
 xmlns:xlink="http://www.w3.org/1999/xlink">
 <defs>
  <style type="text/css">
   <![CDATA[
    .fil0 {fill:white}
   ]]>
  </style>
 </defs>
 <g id="Layer_x0020_1">
  <metadata id="CorelCorpID_0Corel-Layer"/>
  <g id="_2374877430432">
   <path class="fil0" d="M739 659l-3 8c-54,105 -150,169 -286,172 -64,1 -125,-15 -164,-33 -86,-38 -158,-110 -197,-186 -56,-109 -67,-261 51,-374 1,0 -14,24 -13,24l-3 11c-84,264 176,491 429,465 61,-6 138,-39 186,-87l0 0 0 0zm0 0l0 0 0 0 0 0z"/>
   <path class="fil0" d="M586 549c63,1 130,-29 169,-71 -34,88 -134,144 -268,126 -112,-15 -218,-128 -229,-241 -8,-82 20,-131 67,-190 -16,31 -22,55 -24,70 -18,178 142,305 285,306l0 0 0 0zm0 0l0 0 0 0 0 0z"/>
   <path class="fil0" d="M749 329c-10,22 -67,65 -92,70 -100,22 -164,-26 -197,-79 -5,-8 -14,-30 -16,-36 -13,-44 -7,-111 32,-145 -12,33 -14,71 -7,96 3,15 15,41 26,57 20,30 33,37 60,53 12,7 25,13 30,15 25,7 78,27 164,-31l0 0 0 0zm0 0l0 0 0 0 0 0z"/>
  </g>
 </g>
</svg>
