<?xml version="1.0" encoding="UTF-8"?>
<!DOCTYPE svg PUBLIC "-//W3C//DTD SVG 1.1//EN" "http://www.w3.org/Graphics/SVG/1.1/DTD/svg11.dtd">
<!-- Creator: CorelDRAW X8 -->
<svg xmlns="http://www.w3.org/2000/svg" xml:space="preserve" width="816px" height="1056px" version="1.1" style="shape-rendering:geometricPrecision; text-rendering:geometricPrecision; image-rendering:optimizeQuality; fill-rule:evenodd; clip-rule:evenodd"
viewBox="0 0 816 1056"
 xmlns:xlink="http://www.w3.org/1999/xlink"
 enable-background="new 0 0 841.9 595.3">
 <defs>
  <style type="text/css">
   <![CDATA[
    .fil1 {fill:#61DAFB}
    .fil0 {fill:white}
   ]]>
  </style>
 </defs>
 <g id="Layer_x0020_1">
  <metadata id="CorelCorpID_0Corel-Layer"/>
  <g id="React-icon-highlight.svg">
   <g>
    <path class="fil0" d="M785 503c0,-51 -63,-99 -160,-128 22,-99 12,-178 -32,-203 -10,-6 -22,-9 -35,-9l0 35c8,0 13,1 18,4 21,12 30,58 23,118 -1,14 -4,30 -8,45 -30,-7 -63,-13 -98,-17 -21,-28 -43,-54 -65,-77 51,-47 98,-73 131,-73l0 -35c0,0 0,0 0,0 -43,0 -99,31 -156,83 -56,-52 -112,-82 -155,-82l0 34c32,0 80,26 130,73 -21,23 -43,49 -64,77 -35,4 -68,10 -99,18 -3,-16 -6,-31 -8,-46 -7,-59 2,-105 23,-117 5,-3 11,-5 18,-5l0 -34c0,0 0,0 0,0 -13,0 -25,3 -35,9 -44,25 -54,103 -31,202 -97,30 -160,77 -160,128 0,50 63,98 160,128 -22,99 -12,178 32,203 10,6 22,8 35,8 43,0 99,-30 155,-83 57,53 113,83 155,83 14,0 25,-3 36,-9 43,-25 53,-104 31,-202 96,-30 159,-78 159,-128zm-202 -104c-6,20 -13,41 -21,62 -7,-13 -14,-25 -21,-38 -7,-12 -15,-24 -22,-36 22,3 43,7 64,12zm-72 166c-12,21 -24,41 -37,59 -23,2 -47,3 -70,3 -24,0 -47,-1 -70,-3 -13,-18 -26,-38 -38,-59 -12,-20 -23,-41 -32,-62 9,-21 20,-41 32,-62 12,-21 24,-41 37,-59 23,-2 47,-3 71,-3 23,0 46,1 69,3 13,18 26,38 38,59 12,20 23,41 32,62 -9,21 -20,41 -32,62zm51 -20c8,20 15,41 21,61 -20,5 -42,10 -64,13 8,-12 15,-24 22,-37 7,-12 14,-25 21,-37zm-158 165c-15,-14 -29,-31 -43,-49 14,0 28,1 42,1 15,0 29,-1 44,-1 -14,18 -29,35 -43,49zm-116 -91c-22,-3 -43,-7 -64,-12 6,-20 13,-41 21,-62 7,13 13,25 21,37 7,13 14,25 22,37zm115 -324c15,15 29,32 43,50 -14,-1 -28,-1 -42,-1 -15,0 -30,0 -44,1 14,-18 29,-35 43,-50zm-115 92c-8,12 -15,24 -22,37 -8,12 -14,25 -21,37 -8,-21 -15,-42 -21,-62 20,-5 42,-9 64,-12zm-141 195c-55,-24 -90,-55 -90,-79 0,-25 35,-56 90,-79 14,-6 28,-11 43,-16 9,31 21,63 35,95 -14,33 -26,64 -34,94 -16,-4 -30,-10 -44,-15zm84 222c-21,-12 -30,-59 -23,-118 1,-15 4,-30 8,-46 30,8 63,14 98,17 21,29 43,55 65,78 -51,47 -98,73 -131,73 -7,0 -12,-2 -17,-4zm369 -119c7,60 -2,106 -23,118 -5,3 -11,4 -18,4 -32,0 -80,-25 -130,-72 21,-23 43,-49 64,-78 35,-4 68,-9 99,-17 3,16 6,31 8,45zm60 -103c-14,5 -28,10 -43,15 -9,-30 -21,-62 -35,-94 14,-33 25,-64 34,-95 16,5 30,10 44,16 55,24 90,54 90,79 0,24 -35,55 -90,79z"/>
    <polygon class="fil0" points="248,164 248,164 "/>
    <circle class="fil0" cx="403" cy="503" r="71"/>
    <polygon class="fil0" points="558,163 558,163 "/>
   </g>
  </g>
  <g id="React-icon.svg">
   <g>
    <path class="fil1" d="M785 513c0,-51 -63,-99 -160,-128 22,-99 12,-178 -32,-203 -10,-6 -22,-9 -35,-9l0 35c8,0 13,1 18,4 21,12 30,58 23,118 -1,14 -4,30 -8,45 -30,-7 -63,-13 -98,-17 -21,-28 -43,-55 -65,-77 51,-48 98,-73 131,-73l0 -35c0,0 0,0 0,0 -43,0 -99,30 -156,83 -56,-52 -112,-82 -155,-82l0 34c32,0 80,26 130,73 -21,23 -43,49 -64,77 -35,4 -68,10 -99,17 -3,-15 -6,-30 -8,-45 -7,-59 2,-105 23,-117 5,-3 11,-5 18,-5l0 -34c0,0 0,0 0,0 -13,0 -25,3 -35,8 -44,26 -54,104 -31,203 -97,30 -160,77 -160,128 0,50 63,98 160,128 -22,99 -12,178 32,203 10,6 22,8 35,8 43,0 99,-30 155,-83 57,53 113,83 155,83 14,0 25,-3 36,-9 43,-25 53,-104 31,-202 96,-30 159,-78 159,-128zm-202 -104c-6,20 -13,41 -21,62 -7,-13 -14,-25 -21,-38 -7,-12 -15,-24 -22,-36 22,3 43,7 64,12zm-72 166c-12,21 -24,41 -37,59 -23,2 -47,3 -70,3 -24,0 -47,-1 -70,-3 -13,-18 -26,-38 -38,-59 -12,-20 -23,-41 -32,-62 9,-21 20,-41 32,-62 12,-21 24,-41 37,-59 23,-2 47,-3 71,-3 23,0 46,1 69,3 13,18 26,38 38,59 12,20 23,41 32,62 -9,20 -20,41 -32,62zm51 -21c8,21 15,42 21,62 -20,5 -42,10 -64,13 8,-12 15,-24 22,-37 7,-12 14,-25 21,-38zm-158 166c-15,-15 -29,-31 -43,-49 14,0 28,1 42,1 15,0 29,-1 44,-1 -14,18 -29,34 -43,49zm-116 -91c-22,-3 -43,-7 -64,-12 6,-21 13,-41 21,-62 7,13 13,25 21,37 7,13 14,25 22,37zm115 -324c15,15 29,32 43,50 -14,-1 -28,-1 -42,-1 -15,0 -30,0 -44,1 14,-18 29,-35 43,-50zm-115 92c-8,12 -15,24 -22,37 -8,12 -14,25 -21,37 -8,-21 -15,-42 -21,-62 20,-5 42,-9 64,-12zm-141 194c-55,-23 -90,-54 -90,-78 0,-25 35,-56 90,-79 14,-6 28,-11 43,-16 9,31 21,63 35,95 -14,32 -26,64 -34,94 -16,-4 -30,-10 -44,-16zm84 223c-21,-12 -30,-59 -23,-118 1,-15 4,-30 8,-46 30,8 63,14 98,17 21,29 43,55 65,78 -51,47 -98,73 -131,73 -7,0 -12,-2 -17,-4zm369 -119c7,60 -2,106 -23,118 -5,3 -11,4 -18,4 -32,0 -80,-26 -130,-72 21,-23 43,-49 64,-78 35,-4 68,-9 99,-17 3,16 6,31 8,45zm60 -104c-14,6 -28,11 -43,16 -9,-30 -21,-62 -35,-95 14,-32 25,-63 34,-94 16,5 30,10 44,16 55,24 90,54 90,79 0,24 -35,55 -90,78z"/>
    <polygon class="fil1" points="248,174 248,174 "/>
    <circle class="fil1" cx="403" cy="513" r="71"/>
    <polygon class="fil1" points="558,173 558,173 "/>
   </g>
  </g>
 </g>
</svg>
