<?xml version="1.0" encoding="UTF-8"?>
<!DOCTYPE svg PUBLIC "-//W3C//DTD SVG 1.1//EN" "http://www.w3.org/Graphics/SVG/1.1/DTD/svg11.dtd">
<!-- Creator: CorelDRAW X8 -->
<svg xmlns="http://www.w3.org/2000/svg" xml:space="preserve" width="816px" height="1056px" version="1.1" style="shape-rendering:geometricPrecision; text-rendering:geometricPrecision; image-rendering:optimizeQuality; fill-rule:evenodd; clip-rule:evenodd"
viewBox="0 0 816 1056"
 xmlns:xlink="http://www.w3.org/1999/xlink">
 <defs>
  <style type="text/css">
   <![CDATA[
    .fil2 {fill:black}
    .fil4 {fill:#1A9A3D}
    .fil6 {fill:#265DA9}
    .fil10 {fill:#8E8E8E}
    .fil8 {fill:#9A3789}
    .fil0 {fill:#9D9FA2}
    .fil3 {fill:#D13922}
    .fil5 {fill:#EB801C}
    .fil7 {fill:#F6D31A}
    .fil9 {fill:#FEFEFE}
    .fil1 {fill:white}
   ]]>
  </style>
 </defs>
 <g id="Layer_x0020_1">
  <metadata id="CorelCorpID_0Corel-Layer"/>
  <path class="fil0" d="M798 525c22,-203 -165,-390 -365,-391 -216,-1 -377,154 -389,368 -14,265 308,482 306,233 -2,-224 7,-134 181,-112 82,10 255,17 267,-98z"/>
  <g id="_1491751887760">
   <path class="fil1" d="M633 279c-83,10 -68,136 16,126 82,-11 67,-137 -16,-126z"/>
   <path class="fil2" d="M640 496c6,81 131,73 125,-9 -6,-81 -130,-73 -125,9z"/>
   <path class="fil3" d="M196 739c7,81 131,71 124,-11 -8,-82 -132,-71 -124,11z"/>
   <path class="fil4" d="M153 332c7,80 131,70 123,-12 -7,-81 -131,-71 -123,12z"/>
   <path class="fil5" d="M100 616c6,81 130,73 125,-9 -6,-82 -131,-73 -125,9z"/>
   <path class="fil6" d="M284 250c6,81 130,73 125,-9 -6,-82 -131,-73 -125,9z"/>
   <path class="fil7" d="M81 477c13,82 134,63 123,-18 -12,-81 -137,-62 -123,18z"/>
   <path class="fil8" d="M443 256c14,82 135,63 123,-18 -11,-81 -136,-62 -123,18z"/>
  </g>
  <g id="_1491751887216">
   <path class="fil2" d="M318 454l254 27 -84 58 159 101 -20 31 -160 -100 -16 102 -133 -219zm-36 -17l182 301 21 -130 149 94 43 -70 -147 -95 99 -67 6 -6 -12 -2 -334 -35c-4,0 -8,0 -12,-1 -1,4 3,6 5,11z"/>
   <polygon class="fil9" points="627,671 647,640 488,539 572,481 318,454 451,673 467,571 "/>
   <path class="fil10" d="M282 437c-2,-5 -6,-7 -5,-11 4,1 8,1 12,1 -3,-1 -8,-2 -12,-1l-2 0c1,3 4,10 7,11z"/>
   <path class="fil10" d="M629 470c4,-2 6,-2 8,-6 -3,-3 -10,-2 -14,-2l12 2 -6 6z"/>
  </g>
 </g>
</svg>
